HIERARCHY
ROOT Hips
{
	OFFSET -1.912037 86.568367 5.530624
	CHANNELS 6 Xposition Yposition Zposition Zrotation Yrotation Xrotation 
	JOINT Spine
	{
		OFFSET 0.000000 8.814246 -2.080107
		CHANNELS 3 Zrotation Yrotation Xrotation
		JOINT Spine1
		{
			OFFSET 0.000000 8.844141 0.000000
			CHANNELS 3 Zrotation Yrotation Xrotation
			JOINT Spine2
			{
				OFFSET 0.000000 11.682268 0.000000
				CHANNELS 3 Zrotation Yrotation Xrotation
				JOINT Spine3
				{
					OFFSET -0.000000 11.746700 0.000000
					CHANNELS 3 Zrotation Yrotation Xrotation
					JOINT Neck
					{
						OFFSET -0.000000 17.658264 0.000000
						CHANNELS 3 Zrotation Yrotation Xrotation
						JOINT Neck1
						{
							OFFSET 0.000000 5.101515 0.000000
							CHANNELS 3 Zrotation Yrotation Xrotation
							JOINT Head
							{
								OFFSET 0.000000 5.101515 -0.000000
								CHANNELS 3 Zrotation Yrotation Xrotation
								JOINT HeadEnd
								{
									OFFSET -0.000000 11.655085 0.000000
									CHANNELS 3 Zrotation Yrotation Xrotation
									End Site
									{
										OFFSET 0.000000 0.000000 0.000000
									}
								}
							}
						}
					}
					JOINT RightShoulder
					{
						OFFSET -2.625389 11.175210 0.000000
						CHANNELS 3 Zrotation Yrotation Xrotation
						JOINT RightArm
						{
							OFFSET -0.000000 10.434715 -0.000000
							CHANNELS 3 Zrotation Yrotation Xrotation
							JOINT RightForeArm
							{
								OFFSET -0.000000 29.628420 -0.000000
								CHANNELS 3 Zrotation Yrotation Xrotation
								JOINT RightHand
								{
									OFFSET -0.000000 22.857611 -0.000000
									CHANNELS 3 Zrotation Yrotation Xrotation
									JOINT RightHandThumb1
									{
										OFFSET -2.867323 3.959563 2.944291
										CHANNELS 3 Zrotation Yrotation Xrotation
										JOINT RightHandThumb2
										{
											OFFSET 0.000000 3.350399 0.000000
											CHANNELS 3 Zrotation Yrotation Xrotation
											JOINT RightHandThumb3
											{
												OFFSET 0.000000 3.756509 0.000000
												CHANNELS 3 Zrotation Yrotation Xrotation
												JOINT RightHandThumb4
												{
													OFFSET -0.000000 3.147345 -0.000000
													CHANNELS 3 Zrotation Yrotation Xrotation
													End Site
													{
														OFFSET 0.000000 0.000000 0.000000
													}
												}
											}
										}
									}
									JOINT RightHandIndex1
									{
										OFFSET -0.086752 10.030893 2.345280
										CHANNELS 3 Zrotation Yrotation Xrotation
										JOINT RightHandIndex2
										{
											OFFSET -0.000000 4.061090 -0.000000
											CHANNELS 3 Zrotation Yrotation Xrotation
											JOINT RightHandIndex3
											{
												OFFSET 0.000000 3.248873 -0.000000
												CHANNELS 3 Zrotation Yrotation Xrotation
												JOINT RightHandIndex4
												{
													OFFSET 0.000000 2.639709 0.000000
													CHANNELS 3 Zrotation Yrotation Xrotation
													End Site
													{
														OFFSET 0.000000 0.000000 0.000000
													}
												}
											}
										}
									}
									JOINT RightHandMiddle1
									{
										OFFSET 0.104102 9.502952 0.006768
										CHANNELS 3 Zrotation Yrotation Xrotation
										JOINT RightHandMiddle2
										{
											OFFSET -0.000000 4.568727 -0.000000
											CHANNELS 3 Zrotation Yrotation Xrotation
											JOINT RightHandMiddle3
											{
												OFFSET 0.000000 3.654981 0.000000
												CHANNELS 3 Zrotation Yrotation Xrotation
												JOINT RightHandMiddle4
												{
													OFFSET -0.000000 2.741236 -0.000000
													CHANNELS 3 Zrotation Yrotation Xrotation
													End Site
													{
														OFFSET 0.000000 0.000000 0.000000
													}
												}
											}
										}
									}
									JOINT RightHandRing1
									{
										OFFSET 0.086752 8.921708 -2.267442
										CHANNELS 3 Zrotation Yrotation Xrotation
										JOINT RightHandRing2
										{
											OFFSET -0.000000 4.061090 -0.000000
											CHANNELS 3 Zrotation Yrotation Xrotation
											JOINT RightHandRing3
											{
												OFFSET -0.000000 3.654981 -0.000000
												CHANNELS 3 Zrotation Yrotation Xrotation
												JOINT RightHandRing4
												{
													OFFSET 0.000000 2.741236 0.000000
													CHANNELS 3 Zrotation Yrotation Xrotation
													End Site
													{
														OFFSET 0.000000 0.000000 0.000000
													}
												}
											}
										}
									}
									JOINT RightHandPinky1
									{
										OFFSET -0.173504 7.976997 -4.467199
										CHANNELS 3 Zrotation Yrotation Xrotation
										JOINT RightHandPinky2
										{
											OFFSET -0.000000 3.350399 -0.000000
											CHANNELS 3 Zrotation Yrotation Xrotation
											JOINT RightHandPinky3
											{
												OFFSET -0.000000 2.842763 -0.000000
												CHANNELS 3 Zrotation Yrotation Xrotation
												JOINT RightHandPinky4
												{
													OFFSET 0.000000 2.639709 -0.000000
													CHANNELS 3 Zrotation Yrotation Xrotation
													End Site
													{
														OFFSET 0.000000 0.000000 0.000000
													}
												}
											}
										}
									}
									JOINT RightForeArmEnd
									{
										OFFSET 0.000000 0.000000 0.000000
										CHANNELS 3 Zrotation Yrotation Xrotation
										End Site
										{
											OFFSET 0.000000 0.000000 0.000000
										}
									}
								}
								JOINT RightArmEnd
								{
									OFFSET 0.000000 0.000000 0.000000
									CHANNELS 3 Zrotation Yrotation Xrotation
									End Site
									{
										OFFSET 0.000000 0.000000 0.000000
									}
								}
							}
						}
					}
					JOINT LeftShoulder
					{
						OFFSET 2.625389 11.175210 0.000000
						CHANNELS 3 Zrotation Yrotation Xrotation
						JOINT LeftArm
						{
							OFFSET 0.000000 10.813635 0.000000
							CHANNELS 3 Zrotation Yrotation Xrotation
							JOINT LeftForeArm
							{
								OFFSET -0.000000 28.724781 -0.000000
								CHANNELS 3 Zrotation Yrotation Xrotation
								JOINT LeftHand
								{
									OFFSET 0.644384 25.716167 -0.328871
									CHANNELS 3 Zrotation Yrotation Xrotation
									JOINT LeftHandThumb1
									{
										OFFSET 2.867323 3.959563 2.944291
										CHANNELS 3 Zrotation Yrotation Xrotation
										JOINT LeftHandThumb2
										{
											OFFSET 0.000000 3.350399 -0.000000
											CHANNELS 3 Zrotation Yrotation Xrotation
											JOINT LeftHandThumb3
											{
												OFFSET 0.000000 3.756509 -0.000000
												CHANNELS 3 Zrotation Yrotation Xrotation
												JOINT LeftHandThumb4
												{
													OFFSET -0.000000 3.100000 0.000000
													CHANNELS 3 Zrotation Yrotation Xrotation
													End Site
													{
														OFFSET 0.000000 0.000000 0.000000
													}
												}
											}
										}
									}
									JOINT LeftHandIndex1
									{
										OFFSET 0.086752 10.030893 2.345280
										CHANNELS 3 Zrotation Yrotation Xrotation
										JOINT LeftHandIndex2
										{
											OFFSET -0.000000 4.061090 -0.000000
											CHANNELS 3 Zrotation Yrotation Xrotation
											JOINT LeftHandIndex3
											{
												OFFSET 0.000000 3.248873 -0.000000
												CHANNELS 3 Zrotation Yrotation Xrotation
												JOINT LeftHandIndex4
												{
													OFFSET 0.000000 2.639709 -0.000000
													CHANNELS 3 Zrotation Yrotation Xrotation
													End Site
													{
														OFFSET 0.000000 0.000000 0.000000
													}
												}
											}
										}
									}
									JOINT LeftHandMiddle1
									{
										OFFSET -0.104102 9.502952 0.006768
										CHANNELS 3 Zrotation Yrotation Xrotation
										JOINT LeftHandMiddle2
										{
											OFFSET 0.000000 4.568727 -0.000000
											CHANNELS 3 Zrotation Yrotation Xrotation
											JOINT LeftHandMiddle3
											{
												OFFSET 0.000000 3.654981 -0.000000
												CHANNELS 3 Zrotation Yrotation Xrotation
												JOINT LeftHandMiddle4
												{
													OFFSET -0.000000 2.741236 0.000000
													CHANNELS 3 Zrotation Yrotation Xrotation
													End Site
													{
														OFFSET 0.000000 0.000000 0.000000
													}
												}
											}
										}
									}
									JOINT LeftHandRing1
									{
										OFFSET -0.086752 8.921708 -2.267442
										CHANNELS 3 Zrotation Yrotation Xrotation
										JOINT LeftHandRing2
										{
											OFFSET -0.000000 4.061090 0.000000
											CHANNELS 3 Zrotation Yrotation Xrotation
											JOINT LeftHandRing3
											{
												OFFSET 0.000000 3.654981 -0.000000
												CHANNELS 3 Zrotation Yrotation Xrotation
												JOINT LeftHandRing4
												{
													OFFSET 0.000000 2.741236 -0.000000
													CHANNELS 3 Zrotation Yrotation Xrotation
													End Site
													{
														OFFSET 0.000000 0.000000 0.000000
													}
												}
											}
										}
									}
									JOINT LeftHandPinky1
									{
										OFFSET 0.173504 7.976997 -4.467199
										CHANNELS 3 Zrotation Yrotation Xrotation
										JOINT LeftHandPinky2
										{
											OFFSET -0.000000 3.350399 0.000000
											CHANNELS 3 Zrotation Yrotation Xrotation
											JOINT LeftHandPinky3
											{
												OFFSET 0.000000 2.842763 -0.000000
												CHANNELS 3 Zrotation Yrotation Xrotation
												JOINT LeftHandPinky4
												{
													OFFSET 0.000000 2.639709 -0.000000
													CHANNELS 3 Zrotation Yrotation Xrotation
													End Site
													{
														OFFSET 0.000000 0.000000 0.000000
													}
												}
											}
										}
									}
									JOINT LeftForeArmEnd
									{
										OFFSET 0.000000 0.000000 0.000000
										CHANNELS 3 Zrotation Yrotation Xrotation
										End Site
										{
											OFFSET 0.000000 0.000000 0.000000
										}
									}
								}
								JOINT LeftArmEnd
								{
									OFFSET 0.000000 0.000000 0.000000
									CHANNELS 3 Zrotation Yrotation Xrotation
									End Site
									{
										OFFSET 0.000000 0.000000 0.000000
									}
								}
							}
						}
					}
				}
			}
		}
	}
	JOINT RightUpLeg
	{
		OFFSET -11.289943 0.000000 -0.000000
		CHANNELS 3 Zrotation Yrotation Xrotation
		JOINT RightLeg
		{
			OFFSET -0.000000 -38.200325 -0.000000
			CHANNELS 3 Zrotation Yrotation Xrotation
			JOINT RightFoot
			{
				OFFSET -0.000000 -39.900856 -0.000000
				CHANNELS 3 Zrotation Yrotation Xrotation
				JOINT RightToeBase
				{
					OFFSET -0.000000 0.000000 15.261641
					CHANNELS 3 Zrotation Yrotation Xrotation
					JOINT RightToeBaseEnd
					{
						OFFSET -0.000000 0.000000 7.370709
						CHANNELS 3 Zrotation Yrotation Xrotation
						End Site
						{
							OFFSET 0.000000 0.000000 0.000000
						}
					}
				}
				JOINT RightLegEnd
				{
					OFFSET 0.000000 0.000000 0.000000
					CHANNELS 3 Zrotation Yrotation Xrotation
					End Site
					{
						OFFSET 0.000000 0.000000 0.000000
					}
				}
			}
			JOINT RightUpLegEnd
			{
				OFFSET 0.000000 0.000000 0.000000
				CHANNELS 3 Zrotation Yrotation Xrotation
				End Site
				{
					OFFSET 0.000000 0.000000 0.000000
				}
			}
		}
	}
	JOINT LeftUpLeg
	{
		OFFSET 11.315661 0.000000 -0.000000
		CHANNELS 3 Zrotation Yrotation Xrotation
		JOINT LeftLeg
		{
			OFFSET -0.000000 -38.200325 -0.000000
			CHANNELS 3 Zrotation Yrotation Xrotation
			JOINT LeftFoot
			{
				OFFSET 0.000000 -39.900856 -0.000000
				CHANNELS 3 Zrotation Yrotation Xrotation
				JOINT LeftToeBase
				{
					OFFSET 0.000000 0.000000 15.261641
					CHANNELS 3 Zrotation Yrotation Xrotation
					JOINT LeftToeBaseEnd
					{
						OFFSET 0.000000 0.000000 7.539996
						CHANNELS 3 Zrotation Yrotation Xrotation
						End Site
						{
							OFFSET 0.000000 0.000000 0.000000
						}
					}
				}
				JOINT LeftLegEnd
				{
					OFFSET 0.000000 0.000000 0.000000
					CHANNELS 3 Zrotation Yrotation Xrotation
					End Site
					{
						OFFSET 0.000000 0.000000 0.000000
					}
				}
			}
			JOINT LeftUpLegEnd
			{
				OFFSET 0.000000 0.000000 0.000000
				CHANNELS 3 Zrotation Yrotation Xrotation
				End Site
				{
					OFFSET 0.000000 0.000000 0.000000
				}
			}
		}
	}
}
MOTION
Frames: 4
Frame Time: 0.016667
-1.912037 86.568367 5.530624 -0.598368 -0.111742 -10.577420 4.852526 -0.891893 5.701279 -16.650148 4.588746 -0.890081 15.972417 -4.013461 13.988754 -3.313194 1.317191 -1.146356 -6.702097 -2.375131 12.503977 3.801714 -2.242691 -6.478596 1.176686 -3.305272 -24.529366 0.000000 0.000000 0.000000 96.122261 -0.664169 5.794108 52.786488 -45.016762 12.012521 0.380665 8.939718 40.325024 3.342978 23.354639 -10.240219 8.545763 -1.629205 40.815033 0.000000 0.000000 -20.879999 0.000000 0.000000 -14.499997 0.000000 0.000000 0.000000 6.741627 16.426064 -15.359828 7.524071 -0.849915 -2.282508 7.523257 0.141477 -2.151572 0.000000 0.000000 0.000000 10.469961 6.740421 -15.726520 8.607390 -0.920927 -1.050851 8.606282 0.067419 -0.901196 0.000000 0.000000 0.000000 17.570662 -8.723338 -14.356480 10.667946 1.843978 1.671907 10.662380 -0.121479 1.301745 0.000000 0.000000 0.000000 23.649776 -25.250195 -14.761512 11.196314 3.484435 5.267391 11.175681 -0.439636 4.491291 0.000000 0.000000 0.000000 0.000000 0.000000 0.000000 0.000000 0.000000 0.000000 -97.741615 0.809237 4.991523 -50.107899 35.665878 -2.512990 -7.001132 -20.530096 49.700634 0.476509 -11.525541 -17.552208 -10.637670 1.840801 39.870987 0.000000 0.000000 -25.919998 0.000000 0.000000 -18.000004 0.000000 0.000000 0.000000 -17.931372 16.862202 -7.517653 -10.586413 -0.703179 3.203281 -10.585736 0.279802 3.019570 0.000000 0.000000 0.000000 -16.790625 6.902547 -9.618669 -10.877414 -0.878900 1.325040 -10.876113 0.105347 1.136334 0.000000 0.000000 0.000000 -13.951157 -8.836073 -11.040746 -10.890100 1.825816 -1.706378 -10.884533 -0.139532 -1.328557 0.000000 0.000000 0.000000 -8.137121 -25.168430 -15.544965 -9.671938 3.615190 -4.555990 -9.652255 -0.334092 -3.884484 0.000000 0.000000 0.000000 0.000000 0.000000 0.000000 0.000000 0.000000 0.000000 -7.960667 -2.652411 5.263885 -0.374348 -1.156510 17.937485 1.755007 -3.264466 16.202087 -0.361599 -0.648145 -29.557526 0.000000 0.000000 0.000000 0.000000 0.000000 0.000000 0.000000 0.000000 0.000000 4.957609 7.826309 13.010617 0.357436 1.308824 15.230648 -2.154100 17.581291 10.727887 0.695177 0.411569 -27.938610 0.000000 0.000000 0.000000 0.000000 0.000000 0.000000 0.000000 0.000000 0.000000 
-2.415179 86.394356 5.712361 -0.413255 -0.559906 -12.600595 0.145337 0.133434 6.208716 -8.099153 2.107022 0.548427 9.453111 -3.181146 14.796581 -0.444245 0.649386 -1.314024 -8.329050 -2.164830 12.729371 3.440315 -1.918270 -6.640858 0.133818 -3.839993 -24.257513 0.000000 0.000000 0.000000 96.335869 -0.761435 6.566869 50.310726 -45.134842 13.701211 0.602107 8.774973 41.020687 3.538895 22.641834 -11.322751 8.639094 -1.651895 40.760944 0.000017 0.000013 -21.258472 -0.000019 0.000043 -14.676105 0.000003 0.000005 -0.000015 6.000717 16.739037 -13.017939 7.075851 -0.775707 -2.379100 7.288737 0.197418 -2.273380 0.000002 -0.000011 -0.000023 9.601484 6.855778 -13.500461 7.962332 -0.894163 -1.067534 8.060046 0.091939 -0.908989 0.000001 0.000088 0.000018 16.873373 -8.859782 -12.148933 10.005261 1.812532 1.567677 9.943873 -0.132920 1.227474 0.000009 0.000108 0.000005 22.991724 -25.336800 -13.441013 10.984512 3.446190 4.727399 10.525438 -0.461115 3.987465 0.000263 -0.000003 -0.000011 0.000000 0.000000 0.000000 0.000000 0.000000 0.000000 -97.519104 1.463347 4.754464 -49.209251 36.778362 -0.287050 -4.474327 -20.491119 46.735069 0.682968 -10.985323 -15.179628 -11.254771 1.891994 39.577835 -0.000022 0.000019 -27.527855 0.000066 -0.000026 -19.100706 0.000088 -0.000041 -0.001139 -19.837065 16.864437 -9.430222 -11.431393 -0.689325 2.879323 -11.448868 0.277524 2.647357 0.000026 0.000281 0.000013 -18.360538 6.970858 -10.561675 -11.695537 -0.877107 1.231569 -11.410343 0.106517 1.047750 -0.000647 -0.000057 -0.000049 -14.921729 -8.816820 -10.853734 -11.125998 1.842133 -1.726146 -11.071163 -0.134582 -1.340199 0.000111 -0.000004 0.000005 -8.767363 -24.834757 -14.418486 -9.544401 3.437536 -4.792858 -9.463682 -0.429471 -4.058643 0.000263 -0.000002 -0.000049 0.000000 0.000000 0.000000 0.000000 0.000000 0.000000 -7.656640 -1.245919 8.340113 -0.257361 -0.899322 16.808062 0.894400 -4.401670 16.432711 -0.665982 -0.396701 -28.638647 0.000000 0.000000 0.000000 0.000000 0.000000 0.000000 0.000000 0.000000 0.000000 5.598618 8.639856 15.613036 0.233545 0.972263 15.316428 -1.298709 16.745182 11.103831 0.327037 0.878274 -27.260323 0.000000 0.000000 0.000000 0.000000 0.000000 0.000000 0.000000 0.000000 0.000000 
-2.825840 86.409897 5.814024 -0.460817 -1.109782 -12.833039 0.227549 0.117578 6.243013 -8.001329 2.087378 0.368213 9.279189 -3.256021 15.108734 -0.493162 0.603234 -1.377117 -8.236374 -2.020875 12.365458 3.468894 -1.709610 -6.754588 0.056113 -3.871690 -24.121426 0.000000 0.000000 0.000000 96.533249 -0.805146 6.681240 49.412769 -45.649075 14.271516 0.481418 8.727516 40.854042 4.505872 22.705650 -10.541277 8.661698 -1.659790 40.742882 0.000008 0.000018 -21.322416 -0.000016 0.000040 -14.726302 0.000008 0.000007 -0.000020 6.560034 16.687901 -12.797976 7.220960 -0.779868 -2.380452 7.430787 0.192539 -2.279058 0.000004 -0.000007 -0.000017 9.987801 6.833398 -13.333523 8.113447 -0.896114 -1.067173 8.182353 0.089820 -0.908068 -0.000001 0.000070 0.000013 16.990055 -8.829398 -12.038770 10.026555 1.819911 1.557815 9.965932 -0.127037 1.219602 0.000000 0.000287 0.000002 22.899839 -25.249149 -13.321199 10.923902 3.473748 4.661457 10.473294 -0.435918 3.939728 0.000282 0.000000 -0.000008 0.000000 0.000000 0.000000 0.000000 0.000000 0.000000 -97.779213 1.485464 4.843554 -49.624104 36.540379 -0.854033 -4.547490 -20.525581 47.112930 0.551559 -10.631711 -15.724165 -11.223330 1.895524 39.592274 -0.000026 0.000020 -27.441006 0.000059 -0.000018 -19.022308 -0.000164 -0.000035 -0.001272 -19.855038 16.798891 -9.416311 -11.351527 -0.694601 2.881336 -11.365478 0.272055 2.652890 0.000037 0.000356 0.000009 -18.310982 6.958344 -10.564091 -11.640580 -0.878838 1.229354 -11.358472 0.104918 1.045358 -0.000564 -0.000061 -0.000030 -14.800512 -8.806818 -10.957894 -11.076889 1.847761 -1.710751 -11.021359 -0.129805 -1.332132 0.000269 -0.000001 0.000006 -8.557376 -24.815224 -14.573495 -9.497848 3.461163 -4.727749 -9.420740 -0.411442 -4.021323 0.000165 0.000005 -0.000060 0.000000 0.000000 0.000000 0.000000 0.000000 0.000000 -7.275186 -1.008340 8.760983 -0.255612 -0.912895 16.551037 0.629882 -4.071950 16.244446 -0.651787 -0.349082 -28.497211 0.000000 0.000000 0.000000 0.000000 0.000000 0.000000 0.000000 0.000000 0.000000 5.892705 8.466476 16.218378 0.236775 1.002412 14.919893 -1.599800 17.092405 11.221581 0.363307 0.893689 -27.228954 0.000000 0.000000 0.000000 0.000000 0.000000 0.000000 0.000000 0.000000 0.000000 
-3.233514 86.425278 5.906552 -0.595006 -1.570480 -13.037832 0.395483 0.083137 6.230858 -7.930719 2.074464 0.312567 9.195575 -3.312918 15.257243 -0.517230 0.593055 -1.367673 -8.209106 -1.797976 12.144417 3.501625 -1.463891 -6.877861 -0.031639 -3.882604 -24.073790 0.000000 0.000000 0.000000 96.596191 -0.818626 6.752433 48.869854 -45.880219 14.430346 0.409824 8.748444 41.129898 5.350199 22.604538 -9.821843 8.680429 -1.663151 40.733582 0.000005 0.000020 -21.354826 -0.000016 0.000041 -14.754079 0.000007 0.000006 -0.000020 6.939915 16.666269 -12.555472 7.373899 -0.782093 -2.376043 7.569507 0.188318 -2.276080 0.000003 -0.000009 -0.000016 10.210913 6.825889 -13.177883 8.269603 -0.897273 -1.065531 8.317704 0.088396 -0.905772 -0.000002 0.000062 0.000013 17.029129 -8.816262 -11.991020 10.095982 1.824827 1.550382 10.036848 -0.122793 1.213570 0.000000 0.000422 0.000004 22.824339 -25.183285 -13.340520 10.917117 3.490697 4.619847 10.463182 -0.419291 3.905542 0.000267 -0.000001 -0.000009 0.000000 0.000000 0.000000 0.000000 0.000000 0.000000 -97.941154 1.496481 4.842451 -50.337109 36.342491 -1.311039 -4.611807 -20.497734 47.235989 0.432174 -10.337027 -15.980021 -11.245583 1.902373 39.580204 -0.000030 0.000019 -27.493483 0.000050 -0.000017 -19.047766 -0.000347 -0.000037 -0.001241 -20.014208 16.757015 -9.429711 -11.352253 -0.696166 2.889304 -11.361903 0.270578 2.659939 0.000038 0.000302 0.000011 -18.410435 6.950374 -10.610269 -11.648144 -0.879552 1.230818 -11.372288 0.104514 1.046277 -0.000494 -0.000063 -0.000023 -14.852980 -8.797241 -11.106405 -11.097247 1.850095 -1.707338 -11.041224 -0.127622 -1.330231 0.000261 -0.000003 0.000006 -8.559365 -24.789419 -14.766953 -9.512660 3.471346 -4.706363 -9.440363 -0.402711 -4.009679 0.000120 0.000003 -0.000061 0.000000 0.000000 0.000000 0.000000 0.000000 0.000000 -6.801127 -0.893185 9.053262 -0.250536 -0.901256 16.433790 0.316304 -3.953844 16.211119 -0.626251 -0.343717 -28.429520 0.000000 0.000000 0.000000 0.000000 0.000000 0.000000 0.000000 0.000000 0.000000 6.292974 8.328862 16.616791 0.244150 1.020907 14.872748 -1.850096 17.336933 11.270169 0.401093 0.923329 -27.264618 0.000000 0.000000 0.000000 0.000000 0.000000 0.000000 0.000000 0.000000 0.000000 
